<svg xmlns="http://www.w3.org/2000/svg" width="600" height="300" fill="none"><path fill="#1E1E1E" d="M0 0h600v300H0z"/><path fill="#C26D0E" d="M0 0h600v300H0z"/><path fill="#2B1803" d="M260 200h-3.333c-1.768 0-3.464-.752-4.714-2.092-1.251-1.34-1.953-3.156-1.953-5.051v-75c0-1.894.702-3.711 1.953-5.051 1.25-1.339 2.946-2.092 4.714-2.092H260c1.768 0 3.464.753 4.714 2.092 1.25 1.34 1.953 3.157 1.953 5.051v75c0 1.895-.703 3.711-1.953 5.051-1.25 1.34-2.946 2.092-4.714 2.092Zm36.666-67.857c0-1.894-.702-3.711-1.952-5.051-1.251-1.339-2.946-2.092-4.714-2.092h-13.334c-1.768 0-3.463.753-4.714 2.092-1.25 1.34-1.952 3.157-1.952 5.051v6.25c0 .237.088.464.244.631a.804.804 0 0 0 .589.262h25a.804.804 0 0 0 .589-.262.925.925 0 0 0 .244-.631v-6.25ZM270 192.857c0 1.895.702 3.711 1.952 5.051 1.251 1.34 2.946 2.092 4.714 2.092H290c1.768 0 3.463-.752 4.714-2.092 1.25-1.34 1.952-3.156 1.952-5.051v-6.696a.464.464 0 0 0-.122-.316.402.402 0 0 0-.294-.131h-25.834a.402.402 0 0 0-.294.131.464.464 0 0 0-.122.316v6.696ZM296.25 146.428h-25.833c-.23 0-.417.2-.417.447v31.25c0 .246.187.446.417.446h25.833c.23 0 .416-.2.416-.446v-31.25c0-.247-.186-.447-.416-.447ZM313.333 200h-6.667c-1.768 0-3.464-.753-4.714-2.092-1.25-1.34-1.952-3.156-1.952-5.051v-85.714c0-1.895.702-3.711 1.952-5.051 1.25-1.339 2.946-2.092 4.714-2.092h6.667c1.768 0 3.463.753 4.714 2.092 1.25 1.34 1.952 3.156 1.952 5.051v85.714c0 1.895-.702 3.711-1.952 5.051-1.251 1.339-2.946 2.092-4.714 2.092Zm36.643-7.712-6.714-75.893c-.309-3.493-3.53-6.027-7.194-5.649l-6.635.669c-3.665.373-6.386 3.507-6.077 7l6.714 75.893c.308 3.493 3.529 6.027 7.194 5.65l6.635-.67c3.665-.373 6.385-3.507 6.077-7Z"/></svg>