<svg xmlns="http://www.w3.org/2000/svg" width="600" height="300" fill="none"><path fill="#1E1E1E" d="M0 0h600v300H0z"/><path fill="#C7354A" d="M0 0h600v300H0z"/><path fill="#2B0B10" d="M325.455 99h-50.91a14.547 14.547 0 0 0-10.28 4.273A14.596 14.596 0 0 0 260 113.571v72.858a14.596 14.596 0 0 0 4.265 10.298 14.546 14.546 0 0 0 10.28 4.273h50.91a14.546 14.546 0 0 0 10.28-4.273A14.596 14.596 0 0 0 340 186.429v-72.858a14.596 14.596 0 0 0-4.265-10.298A14.547 14.547 0 0 0 325.455 99ZM300 160.929h-18.182a3.634 3.634 0 0 1-2.571-1.067 3.648 3.648 0 0 1 0-5.152 3.634 3.634 0 0 1 2.571-1.067H300c.964 0 1.889.384 2.571 1.067a3.646 3.646 0 0 1-2.571 6.219Zm18.182-18.215h-36.364a3.634 3.634 0 0 1-2.571-1.067 3.644 3.644 0 0 1 2.571-6.218h36.364a3.644 3.644 0 0 1 0 7.285Zm0-18.214h-36.364a3.634 3.634 0 0 1-2.571-1.067 3.646 3.646 0 0 1 2.571-6.219h36.364c.964 0 1.889.384 2.571 1.067a3.646 3.646 0 0 1-2.571 6.219Z"/></svg>