<svg width="600" height="300" fill="none" xmlns="http://www.w3.org/2000/svg"><path fill="#1E1E1E" d="M0 0h600v300H0z"/><path fill="#FFC20E" d="M0 0h600v300H0z"/><path d="M345.11 186.21a47.801 47.801 0 0 1-.962-.527c-1.555-.918-3.125-2.521-2.848-4.272.581-3.819.694-5.623-.118-6.898a3.761 3.761 0 0 0-1.844-1.485v-.014c.339-.614.543-1.356.68-2.425.346-2.635-1.202-10.542-3.293-16.938-1.943-5.913-7.03-11.98-10.747-16.426l-.867-1.04c-5.741-6.931-5.852-9.15-6.383-19.806a548.303 548.303 0 0 0-.282-5.271C317.754 99.093 311.535 93 299.995 93c-6.058 0-10.727 1.713-13.876 5.094-2.522 2.704-3.914 6.406-3.914 10.426 0 7.073.481 12.698.517 13.007.336 8.553.24 9.876-1.998 13.788-.536.942-2.015 2.604-3.58 4.363-2.038 2.293-4.349 4.89-5.615 7.001-.907 1.511-1.414 3.026-1.95 4.631-.818 2.446-1.746 5.218-4.364 8.761-3.022 4.09-3.731 7.094-2.644 11.369-1.188 1.545-1.161 3.442-1.142 4.846.034.488.01.978-.072 1.459-.551 1.819-2.986 2.252-5.289 2.439-.38.029-.745.051-1.094.07-1.745.093-3.253.177-4.118 1.509-.834 1.284-.269 3.306.514 6.105.173.618.351 1.258.527 1.931.44 1.677-.039 2.511-.644 3.555-.587 1.009-1.253 2.157-1.253 4.205 0 3.515 4.808 4.312 10.35 5.256 1.769.297 3.606.607 5.44 1.016a54.423 54.423 0 0 1 8.193 2.559c2.337.894 4.183 1.6 6.354 1.6 3.89 0 6.792-2.34 9.597-4.602l.517-.419c1.329-1.076 5.169-.959 8.256-.872.831.024 1.618.048 2.32.048h1.495c3.241-.02 7.678-.044 10.152.599.902.239 1.491.891 2.234 1.722 1.411 1.572 3.166 3.534 8.027 3.534 4.661 0 7.104-2.087 9.934-4.504 1.721-1.469 3.5-2.99 6.027-4.279.942-.479 1.831-.927 2.663-1.344 5.443-2.727 8.441-4.229 8.441-6.665 0-2.375-2.943-3.954-4.89-4.998Zm-55.907-75.869a3.348 3.348 0 0 1 2.998 2.156c.469 1.33.435 2.497.051 3.1 0 0-.053-.239-.087-.345a3.562 3.562 0 0 0-1.548-2.058 2.752 2.752 0 0 0-1.038-.399 2.755 2.755 0 0 0-1.111.047c-1.024.271-2.022 1.198-2.142 4.502-1.241-2.508-.556-4.312.221-5.51.555-.894 1.796-1.517 2.656-1.493Zm-4.207 89.844c-.387 3.8-4.426 3.742-5.654 3.644-2.359-.197-5.207-1.124-7.965-2.02-1.087-.352-2.209-.719-3.301-1.04-3.173-.932-7.241-1.614-10.51-2.156-.774-.132-1.508-.254-2.176-.371-.668-.118-1.108-.305-1.25-.551-.241-.396.091-1.258.464-2.255.5-1.332 1.183-3.167 1.156-5.405 0-.937-.353-1.988-.683-3.009-.389-1.198-.788-2.436-.464-3.023.296-.535 1.623-.597 2.789-.597h.543c.854 0 1.592.014 2.104-.127 1.565-.434 3.573-1.658 4.282-3.325.216-.52.329-1.663.481-3.355.088-.987.177-2.005.293-2.534a.842.842 0 0 1 .507-.611c.397-.185 1.63-.458 4.479.977 2.688 1.354 5.5 6.191 8.222 10.87.856 1.471 1.663 2.861 2.476 4.159 3.375 5.4 4.527 7.571 4.207 10.734v-.005Zm30.974-7.561c-.288.9-.654 1.773-1.094 2.611a.139.139 0 0 1-.253.003.134.134 0 0 1-.006-.104c.411-1.434.583-2.926.507-4.415-.06-1.133-.096-1.819-.639-2.039-.544-.22-1.025.199-2.272 1.327-.265.24-.568.513-.909.815-2.596 2.269-6.462 4.954-13.369 5.599-4.049.381-6.633-1.109-7.434-1.95a.513.513 0 0 0-.365-.163.521.521 0 0 0-.373.144.54.54 0 0 0-.122.548c.509 1.639.288 2.937-.118 3.879-.228.527-.445.491-.481-.081-.06-1.112-.24-2.367-.721-3.4-.748-1.663-1.683-3.436-2.137-4.284v-.012c.779-.357 2.13-1.157 2.733-2.606.604-1.45 1.077-4.313-2.361-7.605-1.509-1.449-5.313-4.111-8.669-6.469-2.62-1.832-5.33-3.728-5.685-4.195-1.08-1.411-1.532-2.228-1.669-4.708.017-.551.031-1.099.046-1.65l.065-.597a.138.138 0 0 1 .046-.086.142.142 0 0 1 .092-.035.14.14 0 0 1 .138.121c.099.788.26 1.566.481 2.329.26.894.577 1.816.87 2.199.767 1.011 1.818 1.771 2.806 2.034a1.314 1.314 0 0 0 1.202-.172c.704-.558.637-1.821.526-3.915-.113-2.156-.266-5.113.445-8.278 1.351-5.989 2.623-7.788 4.234-10.062.207-.292.421-.592.637-.908.346-.498.721-.982 1.123-1.493 1.795-2.302 3.829-4.909 3.346-9.811a47.4 47.4 0 0 1-.207-2.728.24.24 0 0 1 .452-.142l.118.185.291.479c1.168 1.917 3.279 5.407 6.034 5.407.19 0 .38-.017.568-.05 5.623-.942 12.477-7.247 12.542-7.31.75-.719.682-1.471.394-1.895a1.241 1.241 0 0 0-.7-.488 1.255 1.255 0 0 0-.851.076c-.791.335-1.716.755-2.697 1.198-3.323 1.502-8.895 4.013-10.157 3.436a5.557 5.557 0 0 1-1.52-1.229.245.245 0 0 1-.1-.155.23.23 0 0 1 .002-.094.234.234 0 0 1 .105-.151.226.226 0 0 1 .087-.034.244.244 0 0 1 .18.038c1.344.549 2.296.348 3.414-.019l.241-.081c2.252-.741 3.413-1.143 7.394-2.895a23.513 23.513 0 0 1 3.91-1.42c.961-.24 1.543-.391 1.853-1.04a1.595 1.595 0 0 0-.12-1.708c-.368-.448-.979-.616-1.683-.456-.774.18-1.13.719-1.541 1.076-.577.491-1.202.997-4.133 2.073-6.491 2.395-8.313 2.542-10.868.821-2.366-1.602-3.643-3.169-3.643-3.833 0-.51 1.311-1.366 2.094-1.878.32-.209.623-.405.871-.59 1.043-.771 3.125-2.729 3.216-2.81 1.298-1.296 4.306-.522 6.01.618a.539.539 0 0 0 .414.098.51.51 0 0 0 .404-.618c-1.01-4.183-.031-6.55.961-7.798a5.444 5.444 0 0 1 4.203-2.032c3.079 0 5.231 2.396 5.231 5.851 0 2.635-.678 4.022-1.317 4.863a.424.424 0 0 1-.301.161.42.42 0 0 1-.32-.118.425.425 0 0 1-.057-.527c.532-.909.81-1.944.805-2.997a3.954 3.954 0 0 0-1.182-2.845 3.988 3.988 0 0 0-2.866-1.149c-.948 0-3.241.36-4.032 3.699a7.133 7.133 0 0 0-.082 2.653l.019.17c.217 1.768 3.679 2.997 6.547 3.716 2.731.683 3.125 1.49 2.125 4.703s.748 6.284 1.37 7.084c.761.93 1.43 1.931 1.998 2.988a22.407 22.407 0 0 1 1.592 3.948c.521 1.627.973 3.031 2.555 5.084 2.661 3.45 4.246 11.653 3.606 18.688-.05.577-.127 1.027-.185 1.358-.103.606-.173 1.006.159 1.289.332.283.759.168 1.745-.151l.825-.261a26.28 26.28 0 0 1 3.024-.671.519.519 0 0 0 .382-.278c.825-1.655.926-3.646.962-5.383 0-.21.005-.432.014-.669.046-1.861.109-4.535-.709-7.666a.245.245 0 0 1 .464-.154 22.231 22.231 0 0 1 1.601 6.122c.613 5.409-.457 7.688-.466 7.707a.371.371 0 0 0-.04.16.376.376 0 0 0 .125.296c.041.038.09.066.143.083a4.106 4.106 0 0 1 1.671 1.119c.351.398.224.575-.274.388a8.765 8.765 0 0 0-3.07-.549c-2.5 0-4.349 1.186-5.171 2.202-.767.944-.89 1.838-.921 2.7l-.014.012c-1.799-.179-3.111.29-4.2 1.488l-.019.022c-1.505 1.856-.962 5.901-.311 9.219.308 1.545 1.344 6.114.416 9.027v-.004Zm23.103 2.412c-3.776 1.608-6.113 3.476-8.173 5.125-1.359 1.085-2.645 2.111-4.155 2.908-2.433 1.28-5.988 1.565-7.998-1.844-.57-.959-.171-2.363.38-4.301.733-2.575 1.738-6.1.892-10.697-.226-1.227-.426-2.279-.599-3.189-.673-3.548-.937-4.883-.673-5.944.151-.587.825-.719 1.411-.719.212.002.423.017.632.046a7.065 7.065 0 0 0 1.683 2.898c1.371 1.404 3.277 2.116 5.664 2.121.505.041 6.236.371 8.785-5.367.351.043.877.168 1.034.551.307.764-.065 2.135-.366 3.235-.216.793-.404 1.475-.392 2.005.075 3.833 2.645 5.458 6.21 7.705.43.271.88.553 1.334.848.455.295.69.573.69.812-.125 1.148-4.808 3.153-6.359 3.812v-.005Z" fill="#3A2B00"/></svg>