<svg width="600" height="300" fill="none" xmlns="http://www.w3.org/2000/svg"><path fill="#1E1E1E" d="M0 0h600v300H0z"/><path fill="#C3E81F" d="M0 0h600v300H0z"/><path d="M345 126.562v46.876c0 .541-.143 1.071-.415 1.537a3.012 3.012 0 0 1-1.13 1.111l-42 23.534a2.98 2.98 0 0 1-2.91 0l-42-23.534a3.012 3.012 0 0 1-1.13-1.111 3.047 3.047 0 0 1-.415-1.537v-46.876c.001-.54.144-1.069.416-1.534a2.997 2.997 0 0 1 1.129-1.109l42-23.539a2.98 2.98 0 0 1 2.91 0l42 23.539c.468.261.858.644 1.129 1.109.272.465.415.994.416 1.534Z" stroke="#2C3405" stroke-width="7.5" stroke-linecap="round" stroke-linejoin="round"/><path d="m257.64 126.264 40.9 22.919a2.978 2.978 0 0 0 2.915 0l41.045-22.999m-42.5 69.21V150" stroke="#2C3405" stroke-width="7.5" stroke-linecap="round" stroke-linejoin="round"/><path d="m298.455 149.137-39-21.859a2.985 2.985 0 0 0-1.494-.38 2.989 2.989 0 0 0-2.566 1.526 3.047 3.047 0 0 0-.395 1.502v43.512c0 .541.143 1.071.415 1.537.271.465.662.849 1.13 1.111l39 21.855a2.984 2.984 0 0 0 4.06-1.146 3.05 3.05 0 0 0 .395-1.502V151.78a3.044 3.044 0 0 0-.416-1.533 3.007 3.007 0 0 0-1.129-1.11Z" fill="#2C3405" stroke="#2C3405" stroke-width="7.5" stroke-linejoin="round"/></svg>