<svg width="180" height="26" fill="none" xmlns="http://www.w3.org/2000/svg"><path d="M11.622 26c-2.232 0-4.228-.392-5.988-1.175-1.738-.783-3.112-1.875-4.12-3.277C.503 20.126 0 18.478 0 16.602c0-1.835.483-3.442 1.449-4.823.966-1.402 2.286-2.494 3.96-3.277 1.695-.783 3.606-1.175 5.73-1.175 2.211 0 4.09.464 5.635 1.391 1.566.907 2.768 2.195 3.605 3.865.859 1.67 1.288 3.637 1.288 5.905H5.312v-3.803h12.653l-2.157 1.33c-.086-.908-.322-1.67-.708-2.289a3.809 3.809 0 0 0-1.546-1.453c-.622-.33-1.373-.494-2.254-.494-.965 0-1.792.185-2.479.556a4.067 4.067 0 0 0-1.61 1.546c-.386.639-.579 1.391-.579 2.257 0 1.113.258 2.061.773 2.844.536.763 1.31 1.35 2.318 1.762 1.03.413 2.286.619 3.767.619a16.67 16.67 0 0 0 4.024-.495c1.352-.35 2.576-.835 3.67-1.453v4.019c-1.266.824-2.715 1.463-4.346 1.917-1.61.433-3.348.649-5.216.649ZM23.517 7.853h6.6l1.191 7.048v10.604H24.74V13.943l-1.223-6.09Zm14.552-.526c1.76 0 3.262.34 4.507 1.02a6.788 6.788 0 0 1 2.833 2.875c.666 1.237.998 2.7.998 4.39v9.893H39.84V16.54c0-1.32-.355-2.33-1.063-3.03-.687-.7-1.685-1.051-2.994-1.051-.901 0-1.696.186-2.382.556a3.85 3.85 0 0 0-1.546 1.577c-.365.68-.547 1.484-.547 2.412l-2.028-1.02c.257-1.876.805-3.453 1.642-4.73.837-1.3 1.867-2.278 3.09-2.938 1.224-.66 2.576-.989 4.057-.989ZM49.21 25.505v-4.39l12.685-9.583 4.636.834H49.307V7.853H69.01v4.39l-12.652 9.553-3.928-.835h16.645v4.544H49.21ZM82.682 26c-2.361 0-4.422-.381-6.182-1.144-1.76-.783-3.133-1.875-4.12-3.277-.988-1.422-1.482-3.05-1.482-4.885 0-1.875.494-3.514 1.481-4.915.988-1.402 2.361-2.494 4.121-3.277 1.76-.783 3.82-1.175 6.182-1.175 2.34 0 4.389.392 6.149 1.175 1.781.783 3.166 1.875 4.153 3.277.988 1.401 1.481 3.04 1.481 4.915 0 1.835-.493 3.463-1.48 4.885-.988 1.402-2.373 2.494-4.154 3.277-1.76.763-3.81 1.144-6.15 1.144Zm0-4.668c1.073 0 1.985-.186 2.736-.557.773-.37 1.363-.907 1.771-1.607.408-.701.612-1.526.612-2.474 0-.989-.204-1.824-.612-2.504-.408-.7-.998-1.236-1.77-1.607-.752-.371-1.664-.557-2.737-.557-1.073 0-1.996.186-2.769.557-.773.37-1.363.906-1.77 1.607-.409.68-.612 1.505-.612 2.473 0 .97.203 1.804.611 2.505.408.7.998 1.236 1.771 1.607.773.371 1.696.557 2.769.557ZM97.234 1.7h6.6v23.805h-6.6V1.7ZM107.452 7.574l3.316.619 3.284-.619v17.931h-6.6V7.575Zm3.284-1.453c-1.138 0-2.061-.268-2.769-.804-.708-.556-1.062-1.308-1.062-2.256 0-.928.354-1.67 1.062-2.226.708-.557 1.631-.835 2.769-.835 1.18 0 2.114.278 2.801.835.708.556 1.062 1.298 1.062 2.226 0 .948-.354 1.7-1.062 2.256-.687.536-1.621.804-2.801.804ZM116.801 7.853h6.6l1.191 7.048v10.604h-6.568V13.943l-1.223-6.09Zm14.133-.526c1.696 0 3.134.34 4.315 1.02a6.74 6.74 0 0 1 2.704 2.875c.622 1.237.934 2.7.934 4.39v9.893h-6.568V16.54c0-1.32-.311-2.33-.934-3.03-.622-.7-1.524-1.051-2.704-1.051-.837 0-1.567.186-2.189.556-.601.371-1.074.897-1.417 1.577-.322.68-.483 1.484-.483 2.412l-2.028-1.02c.257-1.876.783-3.453 1.577-4.73.794-1.3 1.771-2.278 2.93-2.938a7.786 7.786 0 0 1 3.863-.989Zm14.263 0c1.695 0 3.134.34 4.314 1.02a6.691 6.691 0 0 1 2.737 2.875c.622 1.237.933 2.7.933 4.39v9.893h-6.568V16.54c0-1.32-.311-2.33-.933-3.03-.623-.7-1.524-1.051-2.705-1.051-.837 0-1.566.186-2.189.556-.601.371-1.073.897-1.416 1.577-.322.68-.483 1.484-.483 2.412l-2.029-1.02c.258-1.876.773-3.453 1.546-4.73.794-1.3 1.781-2.278 2.962-2.938a7.724 7.724 0 0 1 3.831-.989ZM173.175 25.505l-.837-6.368.869-2.443-.869-2.442.837-6.4H180l-1.159 8.811L180 25.505h-6.825Zm1.545-8.81c-.3 1.854-.901 3.483-1.803 4.884-.88 1.402-2.007 2.494-3.38 3.277-1.353.763-2.898 1.144-4.636 1.144-1.803 0-3.392-.381-4.765-1.144-1.353-.783-2.415-1.875-3.188-3.277-.772-1.422-1.159-3.05-1.159-4.885 0-1.875.387-3.514 1.159-4.915.773-1.402 1.835-2.494 3.188-3.277 1.373-.783 2.962-1.175 4.765-1.175 1.738 0 3.283.392 4.636 1.175 1.373.762 2.511 1.844 3.412 3.246.902 1.38 1.492 3.03 1.771 4.946Zm-12.266 0c0 .865.182 1.638.547 2.318.386.68.912 1.216 1.578 1.608.665.37 1.427.556 2.285.556.902 0 1.75-.185 2.544-.556a6.752 6.752 0 0 0 2.092-1.608 6.88 6.88 0 0 0 1.353-2.319 6.822 6.822 0 0 0-1.353-2.35 6.752 6.752 0 0 0-2.092-1.607 5.675 5.675 0 0 0-2.544-.587c-.858 0-1.62.196-2.285.587a4.284 4.284 0 0 0-1.578 1.608c-.365.68-.547 1.463-.547 2.35Z" fill="#fff"/></svg>