<svg width="168" height="25" viewBox="0 0 168 25" fill="none" xmlns="http://www.w3.org/2000/svg">
<path d="M10.8476 25C8.76422 25 6.9012 24.6235 5.25853 23.8704C3.6359 23.1173 2.35382 22.067 1.41229 20.7194C0.470764 19.352 0 17.7665 0 15.9631C0 14.1994 0.450731 12.6536 1.35219 11.3258C2.25366 9.9782 3.48566 8.92786 5.04819 8.17479C6.63076 7.42172 8.41365 7.04519 10.3969 7.04519C12.4602 7.04519 14.2131 7.49108 15.6554 8.38288C17.1178 9.25485 18.2396 10.4935 19.0209 12.0987C19.8222 13.7039 20.2228 15.5965 20.2228 17.7765H4.95805V14.1201H16.7672L14.7539 15.3983C14.6738 14.5264 14.4535 13.7931 14.0929 13.1986C13.7323 12.5842 13.2515 12.1185 12.6505 11.8014C12.0696 11.4843 11.3684 11.3258 10.5471 11.3258C9.64565 11.3258 8.8744 11.5042 8.23336 11.8609C7.59232 12.2176 7.09151 12.713 6.73092 13.3472C6.37034 13.9616 6.19004 14.6849 6.19004 15.5172C6.19004 16.5874 6.43043 17.499 6.91121 18.2521C7.41203 18.9853 8.1332 19.5501 9.07472 19.9465C10.0363 20.3428 11.2082 20.541 12.5904 20.541C13.8525 20.541 15.1045 20.3825 16.3465 20.0654C17.6086 19.7285 18.7504 19.2628 19.7721 18.6683V22.5327C18.5902 23.3254 17.238 23.9398 15.7155 24.3757C14.2131 24.7919 12.5904 25 10.8476 25Z" fill="white"/>
<path d="M21.949 7.55053H28.109L29.2208 14.3282V24.5244H23.0908V13.4067L21.949 7.55053ZM35.531 7.04519C37.1737 7.04519 38.576 7.37218 39.7378 8.02616C40.8997 8.68014 41.7812 9.60166 42.3821 10.7907C43.0031 11.9798 43.3136 13.3868 43.3136 15.0119V24.5244H37.1837V15.9037C37.1837 14.6354 36.8532 13.6643 36.1921 12.9905C35.551 12.3167 34.6195 11.9798 33.3975 11.9798C32.5562 11.9798 31.815 12.1581 31.1739 12.5149C30.5529 12.8716 30.0722 13.3769 29.7316 14.0309C29.391 14.6849 29.2208 15.4578 29.2208 16.3496L27.3277 15.3686C27.5681 13.5652 28.0789 12.0491 28.8602 10.8205C29.6415 9.57194 30.603 8.6306 31.7449 7.99643C32.8867 7.36227 34.1488 7.04519 35.531 7.04519Z" fill="white"/>
<path d="M45.9298 24.5244V20.3032L57.769 11.088L62.096 11.8906H46.0199V7.55053H64.4097V11.7717L52.6006 20.9572L48.9346 20.1546H64.4698V24.5244H45.9298Z" fill="white"/>
<path d="M77.1697 25C74.9661 25 73.043 24.6334 71.4003 23.9001C69.7576 23.147 68.4756 22.0967 67.5541 20.7491C66.6326 19.3817 66.1718 17.8161 66.1718 16.0523C66.1718 14.2489 66.6326 12.6734 67.5541 11.3258C68.4756 9.9782 69.7576 8.92786 71.4003 8.17479C73.043 7.42172 74.9661 7.04519 77.1697 7.04519C79.3532 7.04519 81.2663 7.42172 82.909 8.17479C84.5717 8.92786 85.8638 9.9782 86.7853 11.3258C87.7068 12.6734 88.1675 14.2489 88.1675 16.0523C88.1675 17.8161 87.7068 19.3817 86.7853 20.7491C85.8638 22.0967 84.5717 23.147 82.909 23.9001C81.2663 24.6334 79.3532 25 77.1697 25ZM77.1697 20.5113C78.1713 20.5113 79.0227 20.3329 79.7238 19.9762C80.445 19.6195 80.9959 19.1042 81.3765 18.4304C81.7571 17.7566 81.9474 16.9639 81.9474 16.0523C81.9474 15.1011 81.7571 14.2985 81.3765 13.6445C80.9959 12.9707 80.445 12.4554 79.7238 12.0987C79.0227 11.742 78.1713 11.5636 77.1697 11.5636C76.168 11.5636 75.3066 11.742 74.5855 12.0987C73.8643 12.4554 73.3134 12.9707 72.9328 13.6445C72.5522 14.2985 72.3619 15.0912 72.3619 16.0226C72.3619 16.954 72.5522 17.7566 72.9328 18.4304C73.3134 19.1042 73.8643 19.6195 74.5855 19.9762C75.3066 20.3329 76.168 20.5113 77.1697 20.5113Z" fill="white"/>
<path d="M90.7515 1.63496H96.9115V24.5244H90.7515V1.63496Z" fill="white"/>
<path d="M100.288 7.283L103.383 7.87753L106.448 7.283V24.5244H100.288V7.283ZM103.353 5.88585C102.292 5.88585 101.43 5.62822 100.769 5.11296C100.108 4.57788 99.7776 3.85454 99.7776 2.94293C99.7776 2.05113 100.108 1.33769 100.769 0.802616C101.43 0.267539 102.292 0 103.353 0C104.455 0 105.327 0.267539 105.968 0.802616C106.629 1.33769 106.959 2.05113 106.959 2.94293C106.959 3.85454 106.629 4.57788 105.968 5.11296C105.327 5.62822 104.455 5.88585 103.353 5.88585Z" fill="white"/>
<path d="M109.014 7.55053H115.174L116.286 14.3282V24.5244H110.156V13.4067L109.014 7.55053ZM122.205 7.04519C123.788 7.04519 125.13 7.37218 126.232 8.02616C127.334 8.68014 128.175 9.60166 128.756 10.7907C129.337 11.9798 129.628 13.3868 129.628 15.0119V24.5244H123.498V15.9037C123.498 14.6354 123.207 13.6643 122.626 12.9905C122.045 12.3167 121.204 11.9798 120.102 11.9798C119.321 11.9798 118.64 12.1581 118.059 12.5149C117.498 12.8716 117.057 13.3769 116.737 14.0309C116.436 14.6849 116.286 15.4578 116.286 16.3496L114.393 15.3686C114.633 13.5652 115.124 12.0491 115.865 10.8205C116.606 9.57194 117.518 8.6306 118.6 7.99643C119.701 7.36227 120.903 7.04519 122.205 7.04519ZM135.517 7.04519C137.1 7.04519 138.442 7.37218 139.544 8.02616C140.665 8.68014 141.517 9.60166 142.098 10.7907C142.679 11.9798 142.969 13.3868 142.969 15.0119V24.5244H136.839V15.9037C136.839 14.6354 136.549 13.6643 135.968 12.9905C135.387 12.3167 134.545 11.9798 133.444 11.9798C132.662 11.9798 131.981 12.1581 131.4 12.5149C130.839 12.8716 130.399 13.3769 130.078 14.0309C129.778 14.6849 129.628 15.4578 129.628 16.3496L127.734 15.3686C127.975 13.5652 128.456 12.0491 129.177 10.8205C129.918 9.57194 130.839 8.6306 131.941 7.99643C133.043 7.36227 134.235 7.04519 135.517 7.04519Z" fill="white"/>
<path d="M161.63 24.5244L160.848 18.4007L161.66 16.0523L160.848 13.7039L161.63 7.55053H168L166.918 16.0226L168 24.5244H161.63ZM163.072 16.0523C162.792 17.8359 162.231 19.4015 161.389 20.7491C160.568 22.0967 159.516 23.147 158.234 23.9001C156.972 24.6334 155.53 25 153.907 25C152.224 25 150.742 24.6334 149.46 23.9001C148.198 23.147 147.206 22.0967 146.485 20.7491C145.764 19.3817 145.403 17.8161 145.403 16.0523C145.403 14.2489 145.764 12.6734 146.485 11.3258C147.206 9.9782 148.198 8.92786 149.46 8.17479C150.742 7.42172 152.224 7.04519 153.907 7.04519C155.53 7.04519 156.972 7.42172 158.234 8.17479C159.516 8.90804 160.578 9.94847 161.419 11.2961C162.261 12.6239 162.812 14.2093 163.072 16.0523ZM151.623 16.0523C151.623 16.8847 151.794 17.6278 152.134 18.2818C152.495 18.9358 152.986 19.451 153.607 19.8276C154.228 20.1843 154.939 20.3627 155.74 20.3627C156.581 20.3627 157.373 20.1843 158.114 19.8276C158.855 19.451 159.506 18.9358 160.067 18.2818C160.628 17.6278 161.049 16.8847 161.329 16.0523C161.049 15.2002 160.628 14.4471 160.067 13.7931C159.506 13.1391 158.855 12.6239 158.114 12.2473C157.373 11.8708 156.581 11.6825 155.74 11.6825C154.939 11.6825 154.228 11.8708 153.607 12.2473C152.986 12.6239 152.495 13.1391 152.134 13.7931C151.794 14.4471 151.623 15.2002 151.623 16.0523Z" fill="white"/>
</svg>
