<svg width="600" height="300" fill="none" xmlns="http://www.w3.org/2000/svg"><path fill="#1E1E1E" d="M0 0h600v300H0z"/><g clip-path="url(#a)"><path fill="#E53935" d="M0 0h600v300H0z"/><path d="M453 31H125c-7.18 0-13 5.82-13 13v280c0 7.18 5.82 13 13 13h328c7.18 0 13-5.82 13-13V44c0-7.18-5.82-13-13-13z" fill="#0C0C0C" stroke="#F05E5B" stroke-width="6"/><path d="M132 258v106h75V258h-75zm80 0v106h75V258h-75zm80 0v106h75V258h-75zm80 0v106h75V258h-75z" fill="#818181"/><path d="M463 114H115v131h348V114z" fill="#0F0F0F"/><path d="M447.15 200.454H295.631v5H447.15v-5zM447.15 193.454H295.631v5H447.15v-5zM447.15 186.453H295.631v5H447.15v-5zM447.15 179.454H295.631v5H447.15v-5zM447.15 172.453H295.631v5H447.15v-5zM447.15 165.454H295.631v5H447.15v-5zM447.15 158.453H295.631v5H447.15v-5zM447.15 151.454H295.631v5H447.15v-5z" fill="#818181"/><path d="M375.631 134.238h-80v12h80v-12z" fill="#ED6966"/><path d="M291.632 134.238h-160v90h160v-90z" fill="#E33935"/><path fill-rule="evenodd" clip-rule="evenodd" d="m211.632 158.738 1.72 3.315c2.355 4.541 5.102 7.702 7.584 10.559.362.416.719.827 1.068 1.234 2.673 3.12 5.128 6.294 5.128 10.729 0 8.419-6.985 15.163-15.5 15.163-8.516 0-15.5-6.744-15.5-15.163 0-4.435 2.454-7.609 5.128-10.729.348-.407.705-.818 1.067-1.234 2.482-2.857 5.229-6.018 7.585-10.559l1.72-3.315zm-7.429 17.627c-2.695 3.145-4.196 5.34-4.196 8.21 0 6.191 5.159 11.29 11.625 11.29 6.465 0 11.625-5.099 11.625-11.29 0-2.87-1.502-5.065-4.197-8.21-.33-.385-.674-.781-1.03-1.19-1.95-2.24-4.25-4.884-6.398-8.325-2.149 3.441-4.449 6.085-6.399 8.325-.356.409-.701.805-1.03 1.19z" fill="#0F0F0F"/><path d="m233.209 68.715-2.713 3.17h2.76l1.441-1.654 1.44 1.654h2.759l-2.687-3.17h-3zm-13.705.601c-2.576 0-4.576.704-6 2.112-1.408 1.392-2.111 3.528-2.111 6.408 0 1.952.311 3.56.935 4.824.64 1.264 1.569 2.2 2.785 2.809 1.216.592 2.679.887 4.391.887 1.44 0 2.72-.232 3.84-.696 1.12-.48 1.993-1.2 2.617-2.16.64-.96.959-2.169.959-3.625h-3.455c0 .768-.161 1.417-.481 1.945-.32.528-.775.928-1.367 1.2-.592.272-1.288.408-2.088.408-1.024 0-1.865-.192-2.521-.576-.64-.4-1.12-.984-1.44-1.752-.32-.784-.48-1.753-.48-2.905v-.744c0-1.12.153-2.064.457-2.832.32-.784.807-1.375 1.463-1.775.672-.4 1.521-.6 2.545-.6.752 0 1.408.144 1.968.432a2.914 2.914 0 0 1 1.319 1.199c.32.528.48 1.177.48 1.945h3.6c0-1.456-.326-2.665-.982-3.625-.64-.96-1.521-1.68-2.641-2.16-1.12-.48-2.385-.719-3.793-.719zM159 69.603v16.465h11.881V83.02h-8.305V69.603H159zm125.881 3.528c-.512 0-.96.104-1.344.312a2.854 2.854 0 0 0-.961.84 4.539 4.539 0 0 0-.623 1.13h-.168l-.264-1.97h-2.761v12.625h3.336v-6.312c0-.56.056-1.049.168-1.465.128-.416.32-.767.576-1.055.256-.288.569-.497.937-.625a3.739 3.739 0 0 1 1.319-.215h1.033v-3.025a2.934 2.934 0 0 0-.504-.142 2.702 2.702 0 0 0-.744-.098zm-50.184.025c-1.088 0-2.039.144-2.855.432-.816.288-1.449.704-1.897 1.248-.448.528-.672 1.16-.672 1.896v.287c0 .064.009.137.024.217h3.24v-.289c0-.24.064-.456.192-.648.144-.208.375-.376.695-.504.336-.128.769-.192 1.297-.192.528 0 .936.08 1.224.24.304.16.511.377.623.65.128.271.192.59.192.958v.938c-1.2 0-2.295.063-3.287.191s-1.849.36-2.569.695c-.704.32-1.247.768-1.631 1.344-.384.576-.576 1.306-.576 2.186 0 .736.127 1.342.383 1.822.272.464.617.824 1.033 1.08.416.24.855.408 1.319.504.48.096.929.145 1.345.145.672 0 1.264-.071 1.776-.215a4.666 4.666 0 0 0 1.369-.602c.4-.256.736-.55 1.008-.887h.168c.096.352.264.656.504.912.24.24.536.423.888.551.368.144.784.217 1.248.217.48 0 .887-.048 1.223-.144.336-.08.584-.16.744-.24v-2.184h-.791a.962.962 0 0 1-.576-.192c-.16-.144-.24-.36-.24-.648v-5.737c0-.895-.217-1.64-.649-2.232-.416-.592-1.024-1.04-1.824-1.344-.784-.304-1.76-.455-2.928-.455zm15.623 0a4.82 4.82 0 0 0-1.535.24c-.464.16-.889.392-1.273.696a4.785 4.785 0 0 0-.959 1.08h-.168l-.264-1.729h-2.76v12.625h3.336V78.7c0-.544.097-1.023.289-1.44.208-.415.488-.744.84-.984a2.15 2.15 0 0 1 1.199-.359c.288 0 .544.04.768.12.24.08.442.208.602.384.16.16.278.384.357.672.096.272.144.608.144 1.008v7.968h3.336V78.7c0-.544.097-1.023.289-1.44.208-.415.488-.744.84-.984a2.08 2.08 0 0 1 1.2-.359c.273 0 .528.04.767.12.24.08.44.208.6.384.16.16.281.384.361.672.096.272.143.608.143 1.008v7.968h3.338V77.5c0-1.024-.17-1.856-.506-2.496-.336-.656-.799-1.128-1.391-1.416-.576-.288-1.264-.432-2.064-.432-.56 0-1.088.08-1.584.24-.496.16-.937.392-1.321.696a4.527 4.527 0 0 0-.984 1.08h-.168c-.32-.704-.775-1.215-1.367-1.535-.576-.32-1.265-.48-2.065-.48zm20.088 0c-1.36 0-2.511.239-3.455.719-.928.464-1.633 1.184-2.113 2.16-.48.96-.719 2.2-.719 3.72 0 1.505.239 2.746.719 3.722s1.193 1.703 2.137 2.183c.944.464 2.111.696 3.503.696.864 0 1.648-.096 2.352-.288.72-.208 1.336-.504 1.848-.888a4.19 4.19 0 0 0 1.201-1.489c.288-.592.431-1.288.431-2.088h-3.263c0 .369-.064.697-.192.985a2.01 2.01 0 0 1-.529.72 2.211 2.211 0 0 1-.816.432 3.422 3.422 0 0 1-1.032.145c-.704 0-1.271-.122-1.703-.362-.416-.256-.729-.64-.937-1.152-.192-.512-.304-1.135-.336-1.871h8.808v-.863c0-1.504-.223-2.73-.671-3.674-.448-.96-1.113-1.663-1.993-2.111-.88-.464-1.96-.696-3.24-.696zm22.49 0c-1.088 0-2.041.144-2.857.432-.816.288-1.447.704-1.895 1.248-.448.528-.673 1.16-.673 1.896v.287c0 .064.008.137.023.217h3.24v-.289c0-.24.064-.456.192-.648.144-.208.377-.376.697-.504.336-.128.767-.192 1.295-.192.528 0 .937.08 1.225.24.304.16.513.377.625.65.128.271.191.59.191.958v.938c-1.2 0-2.297.063-3.289.191s-1.847.36-2.567.695c-.704.32-1.248.768-1.632 1.344-.384.576-.577 1.306-.577 2.186 0 .736.129 1.342.385 1.822.272.464.615.824 1.031 1.08.417.24.857.408 1.321.504.48.096.928.145 1.344.145.672 0 1.265-.071 1.777-.215a4.654 4.654 0 0 0 1.367-.602c.4-.256.736-.55 1.008-.887h.168c.096.352.264.656.504.912.24.24.536.423.888.551.368.144.785.217 1.249.217.479 0 .888-.048 1.224-.144.336-.08.584-.16.744-.24v-2.184h-.793a.958.958 0 0 1-.576-.192c-.16-.144-.24-.36-.24-.648v-5.737c0-.895-.215-1.64-.647-2.232-.416-.592-1.024-1.04-1.824-1.344-.784-.304-1.76-.455-2.928-.455zm19.03 0c-1.36 0-2.511.239-3.455.719-.928.464-1.632 1.184-2.112 2.16-.48.96-.72 2.2-.72 3.72 0 1.505.24 2.746.72 3.722s1.191 1.703 2.135 2.183c.944.464 2.112.696 3.504.696.864 0 1.65-.096 2.354-.288.72-.208 1.335-.504 1.847-.888.512-.4.911-.897 1.199-1.489.288-.592.432-1.288.432-2.088h-3.264c0 .369-.063.697-.191.985a2.01 2.01 0 0 1-.529.72 2.207 2.207 0 0 1-.815.432 3.428 3.428 0 0 1-1.033.145c-.704 0-1.271-.122-1.703-.362-.416-.256-.728-.64-.936-1.152-.192-.512-.304-1.135-.336-1.871h8.807v-.863c0-1.504-.224-2.73-.672-3.674-.448-.96-1.112-1.663-1.992-2.111-.88-.464-1.96-.696-3.24-.696zm-139.127.287v8.45c0 1.568.375 2.704 1.127 3.408.752.704 1.769 1.055 3.049 1.055.608 0 1.167-.088 1.679-.264a4.42 4.42 0 0 0 1.369-.695 5.206 5.206 0 0 0 1.08-1.057h.168l.239 1.728h2.736V73.443h-3.336v7.344c0 .528-.112 1.01-.336 1.441a2.51 2.51 0 0 1-.935.983c-.4.24-.848.361-1.344.361-.336 0-.64-.04-.912-.12a1.737 1.737 0 0 1-.696-.384 1.762 1.762 0 0 1-.408-.671c-.096-.288-.144-.641-.144-1.057v-7.897h-3.336zm13.92 0v2.569h5.783l-6.168 8.64v1.416h11.232v-2.591h-6.431l6.191-8.665v-1.369h-10.607zm83.736 2.184a2.7 2.7 0 0 1 .984.168c.304.096.56.256.768.48.208.224.368.514.48.866.128.352.192.768.192 1.248h-5.328c.08-.624.223-1.137.431-1.537.224-.416.536-.72.936-.913.416-.207.929-.312 1.537-.312zm41.52 0a2.7 2.7 0 0 1 .984.168c.304.096.56.256.768.48.208.224.368.514.48.866.128.352.191.768.191 1.248h-5.328c.08-.624.224-1.137.432-1.537.224-.416.537-.72.937-.913.416-.207.928-.312 1.536-.312zm-75.217 4.824v.697c0 .384-.071.745-.215 1.08a2.425 2.425 0 0 1-.553.864c-.24.224-.535.409-.887.552a3.503 3.503 0 0 1-1.201.192c-.384 0-.712-.056-.984-.168a1.376 1.376 0 0 1-.623-.48 1.275 1.275 0 0 1-.217-.745c0-.512.2-.91.6-1.199.416-.288.977-.487 1.681-.6a13.486 13.486 0 0 1 2.399-.193zm58.201 0v.697c0 .384-.073.745-.217 1.08a2.42 2.42 0 0 1-.551.864c-.24.224-.536.409-.888.552a3.497 3.497 0 0 1-1.2.192c-.384 0-.712-.056-.984-.168a1.37 1.37 0 0 1-.625-.48 1.274 1.274 0 0 1-.215-.745c0-.512.2-.91.6-1.199.416-.288.976-.487 1.68-.6a13.498 13.498 0 0 1 2.4-.193zm-94.777 2.184v3.433h1.705c0 .448-.073.864-.217 1.248a2.293 2.293 0 0 1-.623.936 1.862 1.862 0 0 1-1.008.48v1.391a4.897 4.897 0 0 0 1.775-.623c.56-.32 1.008-.785 1.344-1.393.336-.608.504-1.399.504-2.375v-3.097h-3.48z" fill="#fff"/><path d="M332.641 69.316c-2.576 0-4.576.704-6 2.112-1.408 1.392-2.112 3.528-2.112 6.408 0 1.952.312 3.56.936 4.824.64 1.264 1.567 2.2 2.783 2.809 1.216.592 2.681.887 4.393.887 1.44 0 2.719-.232 3.839-.696 1.12-.48 1.992-1.2 2.616-2.16.64-.96.961-2.169.961-3.625H336.6c0 .768-.159 1.417-.479 1.945-.32.528-.777.928-1.369 1.2-.592.272-1.288.408-2.088.408-1.024 0-1.863-.192-2.519-.576-.64-.4-1.12-.984-1.44-1.752-.32-.784-.48-1.753-.48-2.905v-.744c0-1.12.151-2.064.455-2.832.32-.784.809-1.375 1.465-1.775.672-.4 1.52-.6 2.544-.6.752 0 1.407.144 1.967.432a2.919 2.919 0 0 1 1.321 1.199c.32.528.48 1.177.48 1.945h3.6c0-1.456-.329-2.665-.985-3.625-.64-.96-1.52-1.68-2.64-2.16-1.12-.48-2.383-.719-3.791-.719zm72.287 3.815c-.512 0-.96.104-1.344.312a2.848 2.848 0 0 0-.959.84 4.544 4.544 0 0 0-.625 1.13h-.168l-.264-1.97h-2.759v12.625h3.336v-6.312c0-.56.055-1.049.167-1.465.129-.416.321-.767.577-1.055.256-.288.567-.497.935-.625a3.75 3.75 0 0 1 1.321-.215h1.031v-3.025a2.934 2.934 0 0 0-.504-.142 2.702 2.702 0 0 0-.744-.098zm-56.688.025c-1.36 0-2.511.239-3.455.719-.928.464-1.633 1.184-2.113 2.16-.48.96-.719 2.2-.719 3.72 0 1.505.239 2.746.719 3.722s1.193 1.703 2.137 2.183c.944.464 2.112.696 3.503.696.865 0 1.648-.096 2.352-.288.72-.208 1.336-.504 1.848-.888a4.19 4.19 0 0 0 1.201-1.489c.288-.592.432-1.288.432-2.088h-3.264c0 .369-.064.697-.192.985a2.01 2.01 0 0 1-.529.72 2.211 2.211 0 0 1-.816.432 3.417 3.417 0 0 1-1.032.145c-.703 0-1.271-.122-1.703-.362-.416-.256-.729-.64-.937-1.152-.192-.512-.304-1.135-.336-1.871h8.809v-.863c0-1.504-.224-2.73-.672-3.674-.448-.96-1.113-1.663-1.993-2.111-.88-.464-1.96-.696-3.24-.696zm15.649 0c-.608 0-1.168.08-1.68.24-.512.16-.977.392-1.393.696-.4.304-.743.664-1.031 1.08h-.168l-.263-1.729h-2.762v12.625h3.336V78.7c0-.544.112-1.023.336-1.44a2.52 2.52 0 0 1 .937-.984c.4-.24.848-.359 1.344-.359.336 0 .64.04.912.12.272.08.496.215.672.407.192.176.336.41.432.698.096.272.144.607.144 1.007v7.92h3.336V77.62c0-1.056-.177-1.91-.529-2.566-.336-.656-.816-1.138-1.44-1.442-.624-.304-1.351-.455-2.183-.455zm12.431 0c-.784 0-1.521.08-2.209.24a5.487 5.487 0 0 0-1.775.696c-.496.32-.888.728-1.176 1.224-.288.48-.431 1.047-.431 1.703 0 .672.134 1.232.406 1.68a3.33 3.33 0 0 0 1.056 1.057c.448.272.945.496 1.489.672.544.16 1.088.303 1.632.431.593.16 1.135.304 1.631.432.512.128.921.296 1.225.504a1 1 0 0 1 .48.889.89.89 0 0 1-.384.744c-.24.192-.544.328-.912.408-.352.064-.72.096-1.104.096-.432 0-.848-.056-1.248-.168-.385-.112-.697-.288-.936-.528-.241-.256-.369-.584-.384-.984v-.192h-3.217a.332.332 0 0 0-.022.143v.194c0 .607.127 1.15.383 1.63.272.48.657.896 1.153 1.248.496.336 1.096.601 1.8.793.704.192 1.495.288 2.375.288.816 0 1.576-.071 2.28-.215.704-.144 1.321-.378 1.849-.698a3.33 3.33 0 0 0 1.223-1.271c.304-.528.457-1.175.457-1.944 0-.8-.168-1.432-.504-1.896a3.29 3.29 0 0 0-1.32-1.103 8.584 8.584 0 0 0-1.776-.602 93.722 93.722 0 0 1-3.072-.84 3.41 3.41 0 0 1-.935-.408.82.82 0 0 1-.338-.672c0-.192.048-.35.144-.478a1.31 1.31 0 0 1 .457-.362 2.55 2.55 0 0 1 .672-.215c.272-.048.567-.072.887-.072.464 0 .858.056 1.178.168.336.112.591.272.767.48.176.193.264.431.264.72v.193h3.191a.529.529 0 0 0 .024-.194v-.31c0-.544-.137-1.033-.409-1.465a3.24 3.24 0 0 0-1.127-1.104 5.285 5.285 0 0 0-1.681-.671 8.482 8.482 0 0 0-2.063-.24zm36.625 0c-1.088 0-2.039.144-2.855.432-.816.288-1.449.704-1.897 1.248-.448.528-.672 1.16-.672 1.896v.287c0 .064.009.137.024.217h3.24v-.289c0-.24.064-.456.192-.648.144-.208.375-.376.695-.504.336-.128.769-.192 1.297-.192.528 0 .936.08 1.224.24.304.16.511.377.623.65.128.271.192.59.192.958v.938c-1.2 0-2.295.063-3.287.191s-1.849.36-2.569.695c-.704.32-1.247.768-1.631 1.344-.384.576-.576 1.306-.576 2.186 0 .736.127 1.342.383 1.822.272.464.617.824 1.033 1.08.416.24.855.408 1.319.504.48.096.929.145 1.345.145.672 0 1.264-.071 1.776-.215a4.666 4.666 0 0 0 1.369-.602c.4-.256.736-.55 1.008-.887h.168c.096.352.264.656.504.912.24.24.536.423.888.551.368.144.784.217 1.248.217.48 0 .887-.048 1.223-.144.336-.08.584-.16.744-.24v-2.184h-.791a.958.958 0 0 1-.576-.192c-.16-.144-.24-.36-.24-.648v-5.737c0-.895-.217-1.64-.649-2.232-.416-.592-1.024-1.04-1.824-1.344-.784-.304-1.76-.455-2.928-.455zm-28.656.287v8.45c0 1.568.375 2.704 1.127 3.408.752.704 1.769 1.055 3.049 1.055.608 0 1.168-.088 1.68-.264a4.41 4.41 0 0 0 1.367-.695 5.206 5.206 0 0 0 1.08-1.057h.168l.24 1.728h2.736V73.443H392.4v7.344c0 .528-.112 1.01-.336 1.441a2.51 2.51 0 0 1-.935.983c-.4.24-.848.361-1.344.361-.336 0-.64-.04-.912-.12a1.74 1.74 0 0 1-.697-.384c-.176-.176-.31-.4-.406-.671-.096-.288-.145-.641-.145-1.057v-7.897h-3.336zm-36 2.184a2.7 2.7 0 0 1 .984.168c.304.096.56.256.768.48.208.224.368.514.48.866.128.352.192.768.192 1.248h-5.328c.08-.624.223-1.137.431-1.537.224-.416.536-.72.936-.913.416-.207.929-.312 1.537-.312zm66.719 4.824v.697c0 .384-.071.745-.215 1.08a2.425 2.425 0 0 1-.553.864c-.24.224-.534.409-.886.552a3.509 3.509 0 0 1-1.202.192c-.384 0-.712-.056-.984-.168a1.365 1.365 0 0 1-.623-.48 1.275 1.275 0 0 1-.217-.745c0-.512.2-.91.6-1.199.416-.288.977-.487 1.681-.6a13.486 13.486 0 0 1 2.399-.193zM288.326 53c-1.418 0-2.519.387-3.303 1.162-.776.767-1.162 1.944-1.162 3.53 0 1.074.17 1.96.514 2.656.352.696.863 1.21 1.533 1.545.67.326 1.476.49 2.418.49.793 0 1.498-.13 2.115-.385a3.149 3.149 0 0 0 1.44-1.19c.353-.528.529-1.192.529-1.993h-1.902c0 .422-.088.779-.264 1.07-.177.29-.428.51-.754.66-.326.15-.71.224-1.15.224-.564 0-1.026-.104-1.387-.316a2.013 2.013 0 0 1-.793-.965c-.176-.431-.264-.965-.264-1.6v-.41c0-.616.083-1.135.25-1.558.176-.432.446-.758.807-.979.37-.22.837-.33 1.401-.33.414 0 .775.08 1.084.239.317.15.559.369.726.66.176.29.264.647.264 1.07h1.982c0-.802-.18-1.465-.541-1.994a3.23 3.23 0 0 0-1.455-1.19c-.616-.264-1.312-.396-2.088-.396zm9.688 0c-1.419 0-2.521.387-3.305 1.162-.775.767-1.162 1.944-1.162 3.53 0 1.074.171 1.96.515 2.656a3.38 3.38 0 0 0 1.534 1.545c.669.326 1.475.49 2.418.49.793 0 1.497-.13 2.113-.385a3.152 3.152 0 0 0 1.441-1.19c.352-.528.528-1.192.528-1.993h-1.903c0 .422-.087.779-.263 1.07-.176.29-.428.51-.754.66-.326.15-.708.224-1.149.224-.564 0-1.027-.104-1.388-.316a2.007 2.007 0 0 1-.793-.965c-.176-.431-.264-.965-.264-1.6v-.41c0-.616.084-1.135.252-1.558.176-.432.443-.758.805-.979.37-.22.837-.33 1.4-.33.415 0 .776.08 1.084.239.317.15.56.369.727.66.176.29.265.647.265 1.07h1.981c0-.802-.18-1.465-.541-1.994a3.23 3.23 0 0 0-1.453-1.19c-.617-.264-1.313-.396-2.088-.396zm-21.157.158v9.067h6.541v-1.68h-4.572v-7.387h-1.969z" fill="#E53935"/><path d="M200.031 92.678v1.13h1.11v-1.13h-1.11zm68.832 0v1.13h1.11v-1.13h-1.11zm2.539 0v7.713h1.11v-7.713h-1.11zm8.364 0v2.785h-.075a1.658 1.658 0 0 0-.992-.727 2.7 2.7 0 0 0-.695-.086c-.426 0-.802.105-1.129.31-.327.207-.583.524-.768.95-.185.427-.279.977-.279 1.653 0 .69.09 1.251.268 1.685.185.434.443.755.777.961.335.206.729.309 1.184.309a2.2 2.2 0 0 0 .994-.223c.306-.149.551-.375.736-.674h.074l.106.77h.908v-7.713h-1.109zm51.402 0v1.13h1.109v-1.13h-1.109zm15.295 0v2.785h-.074a1.554 1.554 0 0 0-.428-.46 1.658 1.658 0 0 0-.565-.267 2.684 2.684 0 0 0-.693-.086c-.427 0-.804.105-1.131.31-.327.207-.582.524-.767.95-.185.427-.278.977-.278 1.653 0 .69.088 1.251.266 1.685.185.434.445.755.779.961.334.206.729.309 1.184.309.363 0 .693-.074.992-.223a1.77 1.77 0 0 0 .736-.674h.075l.107.77h.906v-7.713h-1.109zm29.301 0v1.13h1.109v-1.13h-1.109zm2.539 0v7.713h1.109v-7.713h-1.109zm2.539 0v1.13h1.109v-1.13h-1.109zm-193.578.267c-.754 0-1.408.139-1.963.416a2.898 2.898 0 0 0-1.27 1.258c-.292.555-.437 1.258-.437 2.112 0 .846.145 1.551.437 2.113a2.9 2.9 0 0 0 1.27 1.258c.555.277 1.209.416 1.963.416.768 0 1.425-.139 1.972-.416a2.839 2.839 0 0 0 1.26-1.258c.299-.562.447-1.267.447-2.113 0-.854-.148-1.557-.447-2.112a2.836 2.836 0 0 0-1.26-1.258c-.547-.277-1.204-.416-1.972-.416zm59.22.127v7.319h3.883c.426 0 .807-.068 1.141-.203.334-.143.602-.364.801-.663.206-.298.308-.678.308-1.14 0-.342-.063-.633-.191-.875a1.518 1.518 0 0 0-.502-.598 1.757 1.757 0 0 0-.703-.318v-.043a1.79 1.79 0 0 0 .607-.354c.185-.156.328-.346.428-.574.106-.228.16-.48.16-.758a1.686 1.686 0 0 0-.982-1.568 2.405 2.405 0 0 0-1.067-.225h-3.883zm77.036 0v7.319h2.826c.754 0 1.398-.129 1.931-.385a2.723 2.723 0 0 0 1.227-1.205c.291-.54.437-1.231.437-2.07 0-.847-.146-1.536-.437-2.069a2.666 2.666 0 0 0-1.227-1.195c-.533-.263-1.177-.395-1.931-.395h-2.826zm43.369 0v7.319h1.158v-4.012c0-.2-.003-.423-.01-.672l-.023-.758c0-.249-.005-.458-.012-.629h.086c.035.157.077.332.127.524s.1.38.15.564c.05.185.096.346.139.48l1.482 4.503h1.057l1.482-4.512c.05-.157.102-.341.159-.555l.16-.597c.056-.192.092-.329.107-.407h.086c0 .064-.005.21-.012.438-.008.227-.015.488-.023.78-.008.29-.01.57-.01.84v4.013h1.184v-7.319h-1.836l-1.428 4.428c-.043.142-.087.295-.129.459-.036.163-.071.32-.107.469a4.37 4.37 0 0 0-.074.383h-.086a4.964 4.964 0 0 0-.096-.395c-.036-.15-.075-.305-.117-.469a6.887 6.887 0 0 0-.129-.437l-1.418-4.438h-1.867zm-62.549.139-.203 1.568h-.725v.918h.705v3.53c0 .22.035.431.106.63.078.192.206.351.384.479.185.121.438.182.758.182.092 0 .191-.01.297-.032.107-.014.211-.036.311-.064.107-.021.194-.046.265-.074v-.746h-.554c-.164 0-.281-.044-.352-.13-.071-.085-.107-.209-.107-.372v-3.403h1.015v-.918h-1.015v-1.568h-.885zm29.74 0-.203 1.568h-.725v.918h.703v3.53c0 .22.035.431.106.63.078.192.207.351.385.479.185.121.438.182.758.182.092 0 .192-.01.298-.032.107-.014.21-.036.309-.064.107-.021.197-.046.268-.074v-.746h-.557c-.163 0-.279-.044-.35-.13-.072-.085-.107-.209-.107-.372v-3.403h1.014v-.918h-1.014v-1.568h-.885zm49.674 0-.203 1.568h-.725v.918h.703v3.53c0 .22.037.431.108.63.078.192.206.351.384.479.185.121.436.182.756.182.093 0 .193-.01.299-.032.107-.014.209-.036.309-.064.106-.021.196-.046.267-.074v-.746h-.554c-.164 0-.281-.044-.352-.13-.071-.085-.107-.209-.107-.372v-3.403h1.013v-.918h-1.013v-1.568h-.885zm-196.49.746c.391 0 .736.054 1.035.16.305.107.56.272.767.492.213.22.374.498.481.832.114.335.17.729.17 1.184v.234c0 .441-.056.828-.17 1.163a2.095 2.095 0 0 1-.481.831c-.207.221-.462.384-.767.49-.299.107-.644.16-1.035.16-.384 0-.729-.053-1.035-.16a1.989 1.989 0 0 1-.768-.49 2.163 2.163 0 0 1-.469-.831 3.815 3.815 0 0 1-.16-1.163v-.234c0-.455.053-.85.16-1.184.107-.334.263-.611.469-.832.214-.22.47-.385.768-.492.306-.106.651-.16 1.035-.16zm60.416.14h2.484c.306 0 .551.086.736.257.192.163.289.419.289.767 0 .192-.046.365-.138.522a.883.883 0 0 1-.375.363 1.251 1.251 0 0 1-.586.129h-2.41v-2.037zm77.033 0h1.623c.377 0 .711.05 1.002.15.299.099.547.252.746.458.206.206.359.47.459.79.106.312.16.69.16 1.13v.225c0 .433-.054.809-.16 1.129a1.9 1.9 0 0 1-.459.779c-.199.206-.447.36-.746.459-.291.1-.625.148-1.002.148h-1.623v-5.267zm-128.117.555c-.555 0-1.023.105-1.407.319-.377.213-.661.537-.853.97-.192.427-.289.975-.289 1.643s.092 1.22.277 1.654c.192.434.477.758.854.971.376.206.846.309 1.408.309a2.94 2.94 0 0 0 1.014-.161c.291-.106.532-.255.724-.447.199-.199.346-.435.438-.705.1-.27.15-.572.15-.906h-1.078c0 .277-.047.516-.139.715a.972.972 0 0 1-.394.449c-.171.1-.399.148-.684.148-.327 0-.597-.068-.81-.203-.207-.142-.362-.354-.469-.639-.099-.291-.149-.654-.149-1.087V97.5c0-.455.052-.822.159-1.1.107-.284.264-.493.47-.629.206-.142.459-.212.758-.212.284 0 .516.048.694.148a.86.86 0 0 1 .394.428c.085.192.127.435.127.734h1.121c0-.355-.05-.672-.15-.95a1.629 1.629 0 0 0-.438-.692 1.848 1.848 0 0 0-.724-.426 3.05 3.05 0 0 0-1.004-.149zm8.896 0c-.27 0-.519.035-.746.106a2.128 2.128 0 0 0-.607.31 1.946 1.946 0 0 0-.481.512h-.074l-.096-.8h-.918v5.611h1.11v-3.285c0-.3.063-.56.191-.78a1.39 1.39 0 0 1 1.205-.705c.164 0 .314.02.449.055a.872.872 0 0 1 .352.181c.1.086.174.198.223.34.057.143.088.32.088.534v3.66h1.107v-3.83c0-.47-.077-.842-.234-1.12a1.312 1.312 0 0 0-.629-.597 2.172 2.172 0 0 0-.94-.192zm5.537 0c-.583 0-1.07.105-1.461.319a1.982 1.982 0 0 0-.886.96c-.199.427-.299.978-.299 1.653 0 .668.1 1.22.299 1.654.199.434.491.758.875.971.391.206.875.309 1.451.309.363 0 .693-.047.992-.139.299-.092.555-.224.768-.395.22-.177.389-.394.502-.65.114-.256.169-.55.169-.885h-1.087c0 .185-.032.35-.096.5a1.165 1.165 0 0 1-.268.375c-.113.1-.252.178-.416.235-.163.05-.346.074-.552.074-.334 0-.613-.061-.832-.182a1.158 1.158 0 0 1-.481-.586c-.106-.27-.167-.605-.182-1.004h3.936v-.425c0-.626-.092-1.145-.277-1.557a1.895 1.895 0 0 0-.821-.918c-.356-.206-.8-.309-1.334-.309zm6.336 0c-.242 0-.47.035-.683.106a1.9 1.9 0 0 0-.565.31 2.064 2.064 0 0 0-.437.512h-.075l-.097-.8h-.916v5.611h1.109v-3.285c0-.3.057-.56.17-.78.114-.22.267-.39.459-.511.192-.129.407-.194.641-.194.135 0 .263.02.384.055a.711.711 0 0 1 .309.181.788.788 0 0 1 .203.33c.05.136.074.31.074.524v3.68h1.11v-3.285c0-.3.056-.56.17-.78.114-.22.264-.39.449-.511.185-.129.395-.194.629-.194.142 0 .273.02.394.055a.711.711 0 0 1 .309.181.788.788 0 0 1 .203.33c.05.136.074.31.074.524v3.68h1.11v-3.883c0-.455-.074-.818-.223-1.088a1.283 1.283 0 0 0-.609-.588c-.256-.12-.55-.18-.885-.18-.249 0-.484.035-.705.106a1.77 1.77 0 0 0-.576.32c-.17.135-.32.303-.448.502h-.074c-.136-.334-.335-.573-.598-.715a1.837 1.837 0 0 0-.906-.213zm8.586 0a3.55 3.55 0 0 0-1.185.18c-.341.12-.607.299-.799.533-.185.228-.278.51-.278.844v.127c0 .035.005.072.012.107h1.067v-.16a.67.67 0 0 1 .095-.351.748.748 0 0 1 .352-.278c.17-.078.406-.117.705-.117.298 0 .526.04.682.117a.622.622 0 0 1 .33.33c.064.143.097.306.097.49v.555c-.526 0-1.013.03-1.461.086a4.111 4.111 0 0 0-1.142.3c-.32.141-.568.336-.746.585-.178.249-.268.565-.268.95 0 .326.058.594.172.8.114.2.26.355.437.469.185.114.38.191.586.234a2.84 2.84 0 0 0 1.366-.041 2.047 2.047 0 0 0 1.088-.715h.064c.028.157.08.298.158.426a.865.865 0 0 0 .322.277c.135.071.297.108.489.108.171 0 .321-.019.449-.055a2.8 2.8 0 0 0 .32-.105v-.746h-.384a.383.383 0 0 1-.245-.086c-.064-.057-.097-.154-.097-.29V96.38c0-.363-.081-.672-.244-.928-.164-.256-.41-.45-.737-.586-.32-.142-.721-.213-1.205-.213zm8.789 0c-.27 0-.519.035-.746.106a2.128 2.128 0 0 0-.607.31 1.946 1.946 0 0 0-.481.512h-.074l-.096-.8h-.918v5.611h1.11v-3.285c0-.3.063-.56.191-.78a1.39 1.39 0 0 1 1.205-.705c.164 0 .314.02.449.055a.872.872 0 0 1 .352.181c.1.086.173.198.223.34.057.143.086.32.086.534v3.66h1.109v-3.83c0-.47-.077-.842-.234-1.12a1.312 1.312 0 0 0-.629-.597 2.172 2.172 0 0 0-.94-.192zm5.58 0c-.583 0-1.078.105-1.484.319a2.02 2.02 0 0 0-.906.96c-.199.427-.299.978-.299 1.653 0 .668.1 1.22.299 1.654.206.434.508.758.906.971.406.206.901.309 1.484.309.597 0 1.094-.103 1.492-.309a2.02 2.02 0 0 0 .897-.97c.206-.434.309-.987.309-1.655 0-.675-.103-1.226-.309-1.652a1.966 1.966 0 0 0-.897-.961c-.398-.214-.895-.319-1.492-.319zm15.85 0a1.21 1.21 0 0 0-.619.149c-.164.1-.298.228-.405.385a2.541 2.541 0 0 0-.246.5h-.064l-.096-.907h-.916v5.612h1.108v-3.008c0-.25.026-.473.076-.672.056-.2.141-.367.254-.502.121-.142.268-.25.439-.32.178-.071.38-.108.608-.108h.373v-1.045a4.843 4.843 0 0 0-.213-.052 1.239 1.239 0 0 0-.299-.032zm3.424 0a3.54 3.54 0 0 0-1.184.18c-.341.12-.609.299-.801.533-.185.228-.277.51-.277.844v.127c0 .035.004.072.012.107h1.066v-.16a.67.67 0 0 1 .096-.351.75.75 0 0 1 .351-.278c.171-.078.407-.117.705-.117.299 0 .526.04.682.117a.626.626 0 0 1 .332.33c.064.143.096.306.096.49v.555c-.526 0-1.015.03-1.463.086-.44.057-.821.157-1.141.3-.32.141-.568.336-.746.585-.177.249-.267.565-.267.95 0 .326.057.594.17.8.114.2.261.355.439.469.185.114.38.191.586.234.207.043.399.065.576.065.292 0 .555-.035.789-.106.235-.064.441-.156.619-.277.185-.128.341-.274.469-.438h.063c.029.157.082.298.16.426a.851.851 0 0 0 .32.277c.135.071.3.108.492.108.17 0 .32-.019.448-.055.128-.035.234-.07.32-.105v-.746h-.385a.378.378 0 0 1-.244-.086c-.064-.057-.096-.154-.096-.29V96.38c0-.363-.082-.672-.246-.928-.163-.256-.409-.45-.736-.586-.32-.142-.722-.213-1.205-.213zm31.158 0a1.21 1.21 0 0 0-.619.149c-.164.1-.298.228-.404.385a2.49 2.49 0 0 0-.247.5h-.064l-.096-.907h-.918v5.612h1.11v-3.008c0-.25.024-.473.074-.672.056-.2.142-.367.256-.502.121-.142.266-.25.437-.32.178-.071.38-.108.608-.108h.373v-1.045a4.504 4.504 0 0 0-.213-.052 1.222 1.222 0 0 0-.297-.032zm3.422 0c-.448 0-.842.06-1.184.18-.341.12-.607.299-.799.533-.185.228-.277.51-.277.844v.127c0 .035.003.072.01.107h1.068v-.16a.67.67 0 0 1 .096-.351.745.745 0 0 1 .351-.278c.17-.078.407-.117.706-.117.298 0 .525.04.681.117a.622.622 0 0 1 .33.33c.064.143.096.306.096.49v.555c-.526 0-1.013.03-1.461.086a4.104 4.104 0 0 0-1.141.3 1.784 1.784 0 0 0-.746.585c-.178.249-.267.565-.267.95 0 .326.056.594.17.8.114.2.259.355.437.469.185.114.382.191.588.234a2.831 2.831 0 0 0 1.365-.041 2.047 2.047 0 0 0 1.088-.715h.063c.029.157.082.298.16.426a.86.86 0 0 0 .32.277c.136.071.298.108.49.108.171 0 .32-.019.448-.055a2.8 2.8 0 0 0 .32-.105v-.746h-.383a.385.385 0 0 1-.246-.086c-.064-.057-.096-.154-.096-.29V96.38c0-.363-.081-.672-.244-.928-.164-.256-.409-.45-.736-.586-.32-.142-.723-.213-1.207-.213zm6.603 0c-.27 0-.518.035-.746.106-.22.071-.424.175-.609.31a1.973 1.973 0 0 0-.479.512h-.074l-.096-.8h-.918v5.611h1.11v-3.285c0-.3.063-.56.191-.78a1.39 1.39 0 0 1 1.205-.705c.164 0 .313.02.448.055a.882.882 0 0 1 .353.181.776.776 0 0 1 .223.34c.057.143.086.32.086.534v3.66h1.109v-3.83c0-.47-.077-.842-.234-1.12a1.312 1.312 0 0 0-.629-.597 2.172 2.172 0 0 0-.94-.192zm8.791 0c-.583 0-1.072.105-1.463.319a1.978 1.978 0 0 0-.884.96c-.199.427-.299.978-.299 1.653 0 .668.1 1.22.299 1.654.199.434.491.758.875.971.391.206.873.309 1.449.309.363 0 .694-.047.992-.139.299-.092.555-.224.768-.395.221-.177.388-.394.502-.65.114-.256.172-.55.172-.885h-1.088c0 .185-.032.35-.096.5a1.165 1.165 0 0 1-.268.375 1.25 1.25 0 0 1-.416.235c-.164.05-.348.074-.554.074-.334 0-.611-.061-.832-.182a1.173 1.173 0 0 1-.481-.586c-.106-.27-.165-.605-.18-1.004H312v-.425c0-.626-.094-1.145-.279-1.557-.185-.413-.458-.719-.821-.918-.356-.206-.799-.309-1.332-.309zm7.934 0a3.54 3.54 0 0 0-1.184.18c-.341.12-.606.299-.798.533-.185.228-.278.51-.278.844v.127a.49.49 0 0 0 .01.107h1.068v-.16a.67.67 0 0 1 .096-.351.748.748 0 0 1 .352-.278c.17-.078.404-.117.703-.117.298 0 .527.04.683.117a.622.622 0 0 1 .33.33c.064.143.096.306.096.49v.555c-.526 0-1.013.03-1.461.086-.441.057-.82.157-1.14.3-.32.141-.57.336-.747.585-.178.249-.267.565-.267.95 0 .326.056.594.17.8.113.2.259.355.437.469.185.114.382.191.588.234a2.831 2.831 0 0 0 1.363-.041c.235-.064.442-.156.62-.277.185-.128.34-.274.468-.438h.065c.029.157.082.298.16.426a.86.86 0 0 0 .32.277c.135.071.298.108.49.108.171 0 .32-.019.448-.055a2.8 2.8 0 0 0 .32-.105v-.746h-.383a.385.385 0 0 1-.246-.086c-.064-.057-.096-.154-.096-.29V96.38c0-.363-.082-.672-.246-.928-.163-.256-.409-.45-.736-.586-.32-.142-.721-.213-1.205-.213zm21.644 0c-.448 0-.844.06-1.185.18-.342.12-.607.299-.799.533-.185.228-.279.51-.279.844v.127c0 .035.005.072.013.107h1.065v-.16a.67.67 0 0 1 .096-.351.756.756 0 0 1 .353-.278c.171-.078.404-.117.703-.117.299 0 .527.04.684.117a.622.622 0 0 1 .33.33c.064.143.096.306.096.49v.555c-.527 0-1.013.03-1.461.086a4.104 4.104 0 0 0-1.141.3c-.32.141-.57.336-.748.585-.178.249-.266.565-.266.95 0 .326.056.594.17.8.114.2.26.355.438.469.185.114.38.191.586.234.207.043.399.065.576.065.292 0 .554-.035.789-.106.235-.064.441-.156.619-.277a2.15 2.15 0 0 0 .469-.438h.064c.028.157.082.298.161.426a.851.851 0 0 0 .32.277c.135.071.298.108.49.108.171 0 .319-.019.447-.055.128-.035.235-.07.321-.105v-.746h-.383a.383.383 0 0 1-.246-.086c-.064-.057-.096-.154-.096-.29V96.38c0-.363-.083-.672-.246-.928-.164-.256-.409-.45-.736-.586-.32-.142-.721-.213-1.204-.213zm18.303 0a1.21 1.21 0 0 0-.619.149c-.163.1-.297.228-.404.385-.1.156-.182.322-.246.5h-.063l-.096-.907h-.917v5.612h1.107v-3.008c0-.25.026-.473.076-.672.057-.2.142-.367.256-.502a1.15 1.15 0 0 1 .437-.32 1.63 1.63 0 0 1 .608-.108h.373v-1.045a5.235 5.235 0 0 0-.213-.052 1.244 1.244 0 0 0-.299-.032zm3.424 0a3.54 3.54 0 0 0-1.184.18c-.342.12-.608.299-.8.533-.185.228-.278.51-.278.844v.127c0 .035.004.072.012.107h1.066v-.16a.67.67 0 0 1 .096-.351.753.753 0 0 1 .352-.278c.171-.078.407-.117.705-.117.299 0 .526.04.683.117a.625.625 0 0 1 .33.33c.064.143.096.306.096.49v.555c-.527 0-1.013.03-1.461.086a4.111 4.111 0 0 0-1.142.3c-.32.141-.568.336-.746.585-.178.249-.268.565-.268.95 0 .326.058.594.172.8.114.2.259.355.437.469.184.114.38.191.586.234a2.831 2.831 0 0 0 1.366-.041c.235-.064.441-.156.619-.277.185-.128.34-.274.468-.438h.065c.028.157.082.298.16.426a.851.851 0 0 0 .32.277c.135.071.297.108.489.108.171 0 .321-.019.449-.055.128-.035.234-.07.32-.105v-.746h-.383a.383.383 0 0 1-.246-.086c-.064-.057-.097-.154-.097-.29V96.38c0-.363-.081-.672-.245-.928-.164-.256-.409-.45-.736-.586-.32-.142-.722-.213-1.205-.213zm27.947 0a3.55 3.55 0 0 0-1.185.18c-.341.12-.607.299-.799.533-.185.228-.277.51-.277.844v.127a.56.56 0 0 0 .011.107h1.067v-.16a.67.67 0 0 1 .095-.351.748.748 0 0 1 .352-.278c.17-.078.406-.117.705-.117.298 0 .526.04.682.117a.622.622 0 0 1 .33.33c.064.143.097.306.097.49v.555c-.526 0-1.012.03-1.46.086a4.11 4.11 0 0 0-1.143.3c-.32.141-.569.336-.746.585-.178.249-.268.565-.268.95 0 .326.058.594.172.8.113.2.258.355.436.469.185.114.381.191.588.234a2.831 2.831 0 0 0 1.363-.041c.235-.064.441-.156.619-.277.185-.128.341-.274.469-.438h.064c.029.157.082.298.16.426a.862.862 0 0 0 .321.277c.135.071.298.108.49.108.171 0 .321-.019.449-.055a2.8 2.8 0 0 0 .32-.105v-.746h-.384a.38.38 0 0 1-.244-.086c-.064-.057-.098-.154-.098-.29V96.38c0-.363-.081-.672-.244-.928-.164-.256-.41-.45-.737-.586-.32-.142-.721-.213-1.205-.213zm6.026 0a1.2 1.2 0 0 0-.617.149c-.164.1-.3.228-.407.385-.099.156-.18.322-.244.5h-.064l-.096-.907h-.918v5.612h1.109v-3.008c0-.25.025-.473.075-.672.056-.2.143-.367.257-.502.121-.142.265-.25.436-.32.178-.071.381-.108.609-.108h.373v-1.045a5.235 5.235 0 0 0-.213-.052 1.247 1.247 0 0 0-.3-.032zm-129.448.01a3.83 3.83 0 0 0-.929.106 2.402 2.402 0 0 0-.725.31 1.508 1.508 0 0 0-.469.502c-.114.2-.171.43-.171.693 0 .278.057.507.171.692.114.185.263.338.448.459.185.12.391.22.619.299.235.07.468.139.703.203l.758.224c.242.064.436.152.586.266.149.114.224.277.224.49 0 .164-.06.3-.181.406-.114.107-.263.19-.448.247-.178.05-.373.074-.586.074-.242 0-.467-.025-.673-.074a1.03 1.03 0 0 1-.479-.278.77.77 0 0 1-.182-.533V98.631h-1.099a.311.311 0 0 1-.01.074v.096c0 .256.049.49.149.703.107.206.258.384.458.533.2.149.449.268.747.354.299.085.644.127 1.035.127.341 0 .657-.035.949-.106.291-.064.545-.164.758-.299.221-.142.391-.327.511-.554.121-.228.182-.495.182-.801 0-.334-.07-.602-.213-.801a1.398 1.398 0 0 0-.545-.469 3.634 3.634 0 0 0-.724-.277 44.947 44.947 0 0 0-.78-.225 26.38 26.38 0 0 0-.617-.191 1.81 1.81 0 0 1-.47-.225.465.465 0 0 1-.172-.382c0-.1.022-.19.064-.268a.652.652 0 0 1 .213-.201c.093-.057.212-.1.354-.13.142-.035.305-.052.49-.052.277 0 .497.034.66.106a.822.822 0 0 1 .375.277.666.666 0 0 1 .117.385v.095h1.088v-.086a1.24 1.24 0 0 0-.139-.734 1.374 1.374 0 0 0-.437-.492 2.013 2.013 0 0 0-.682-.309 3.345 3.345 0 0 0-.928-.117zm-65.367.117v5.612h1.11v-5.612h-1.11zm68.832 0v5.612h1.11v-5.612h-1.11zm13.387 0v3.83c0 .697.168 1.191.502 1.483.334.284.771.426 1.312.426.27 0 .514-.035.735-.106.227-.071.434-.175.619-.31.185-.136.345-.306.48-.512h.075l.095.801h.907v-5.612h-1.11v3.285c0 .292-.063.552-.191.78-.127.22-.298.393-.512.521-.206.121-.437.182-.693.182-.163 0-.313-.017-.448-.053a.882.882 0 0 1-.353-.181.867.867 0 0 1-.234-.342 1.625 1.625 0 0 1-.075-.534V94.78h-1.109zm48.918 0v5.612h1.109v-5.612h-1.109zm17.781 0v3.83c0 .697.166 1.191.5 1.483.334.284.773.426 1.313.426.27 0 .515-.035.736-.106.227-.071.433-.175.617-.31.185-.136.346-.306.481-.512h.074l.096.801h.908v-5.612h-1.11v3.285c0 .292-.063.552-.191.78a1.354 1.354 0 0 1-1.207.703c-.163 0-.312-.017-.447-.053a.878.878 0 0 1-.352-.181.867.867 0 0 1-.234-.342 1.623 1.623 0 0 1-.076-.534V94.78h-1.108zm26.815 0v5.612h1.109v-5.612h-1.109zm5.078 0v5.612h1.109v-5.612h-1.109zm-169.834.768c.199 0 .377.029.533.086a.94.94 0 0 1 .406.256c.113.12.199.276.256.468.064.185.096.416.096.694h-2.752c.028-.342.099-.622.213-.842.114-.228.274-.395.48-.502.213-.107.469-.16.768-.16zm98.539 0c.199 0 .376.029.533.086a.94.94 0 0 1 .404.256c.114.12.199.276.256.468.064.185.096.416.096.694h-2.752c.028-.342.101-.622.215-.842.113-.228.273-.395.48-.502.213-.107.469-.16.768-.16zm-69.227.021c.355 0 .647.071.875.213.227.135.393.347.5.631.114.284.172.642.172 1.076v.194c0 .433-.058.791-.172 1.076a1.241 1.241 0 0 1-.5.64c-.228.136-.52.204-.875.204-.349 0-.638-.069-.865-.204a1.292 1.292 0 0 1-.512-.64c-.107-.285-.16-.643-.16-1.076v-.194c0-.433.053-.791.16-1.076.114-.284.284-.496.512-.63.227-.143.516-.214.865-.214zm38.057.043c.214 0 .406.037.576.108.171.07.318.183.438.34.121.149.213.346.277.588.064.241.096.533.096.874v.149c0 .405-.05.75-.149 1.035-.1.277-.253.49-.459.639-.199.142-.462.215-.789.215-.32 0-.583-.066-.789-.194-.199-.128-.349-.325-.449-.596-.099-.277-.149-.637-.149-1.078V97.5c0-.44.046-.8.139-1.078.099-.278.253-.48.459-.608.206-.135.472-.203.799-.203zm66.699 0c.213 0 .405.037.576.108.17.07.317.183.438.34.121.149.213.346.277.588.064.241.096.533.096.874v.149c0 .405-.049.75-.149 1.035-.1.277-.252.49-.459.639-.199.142-.462.215-.789.215-.32 0-.583-.066-.789-.194-.2-.128-.35-.325-.449-.596-.1-.277-.15-.637-.15-1.078V97.5c0-.44.048-.8.14-1.078.099-.278.252-.48.459-.608.206-.135.471-.203.799-.203zm-97.396 1.526h2.508c.27 0 .493.046.671.138a.829.829 0 0 1 .393.385c.093.164.139.361.139.596 0 .391-.106.676-.319.853-.206.171-.474.256-.801.256h-2.591v-2.228zm-20.651.683v.373c0 .207-.039.399-.117.576a1.43 1.43 0 0 1-.32.448c-.135.12-.3.216-.492.287a1.841 1.841 0 0 1-.608.098 1.34 1.34 0 0 1-.5-.086.666.666 0 0 1-.32-.247.771.771 0 0 1-.108-.416c0-.27.104-.479.311-.628.206-.157.493-.264.863-.32a8.604 8.604 0 0 1 1.291-.085zm33.643 0v.373c0 .207-.039.399-.117.576-.079.171-.186.32-.321.448a1.51 1.51 0 0 1-.49.287 1.856 1.856 0 0 1-.609.098c-.192 0-.358-.03-.5-.086a.67.67 0 0 1-.321-.247.771.771 0 0 1-.107-.416c0-.27.104-.479.311-.628.206-.157.493-.264.863-.32a8.604 8.604 0 0 1 1.291-.085zm34.582 0v.373c0 .207-.041.399-.119.576-.078.171-.184.32-.319.448-.135.12-.3.216-.492.287a1.84 1.84 0 0 1-.607.098c-.192 0-.358-.03-.5-.086a.67.67 0 0 1-.321-.247.771.771 0 0 1-.107-.416c0-.27.103-.479.309-.628.206-.157.495-.264.865-.32.37-.058.8-.085 1.291-.085zm23.328 0v.373c0 .207-.041.399-.119.576-.078.171-.183.32-.318.448-.135.12-.301.216-.493.287a1.84 1.84 0 0 1-.607.098c-.192 0-.36-.03-.502-.086a.671.671 0 0 1-.32-.247.77.77 0 0 1-.106-.416c0-.27.103-.479.309-.628.206-.157.495-.264.865-.32.37-.058.8-.085 1.291-.085zm21.641 0v.373c0 .207-.038.399-.116.576-.079.171-.187.32-.322.448a1.51 1.51 0 0 1-.49.287 1.848 1.848 0 0 1-.607.098c-.193 0-.358-.03-.5-.086a.67.67 0 0 1-.323-.247.77.77 0 0 1-.105-.416c0-.27.102-.479.308-.628.206-.157.494-.264.864-.32.37-.058.8-.085 1.291-.085zm21.728 0v.373c0 .207-.039.399-.117.576a1.43 1.43 0 0 1-.32.448c-.135.12-.299.216-.491.287a1.847 1.847 0 0 1-.609.098c-.192 0-.358-.03-.5-.086a.671.671 0 0 1-.32-.247.77.77 0 0 1-.106-.416c0-.27.103-.479.309-.628.206-.157.493-.264.863-.32a8.604 8.604 0 0 1 1.291-.085zm27.947 0v.373c0 .207-.039.399-.117.576-.079.171-.185.32-.32.448-.136.12-.3.216-.492.287a1.85 1.85 0 0 1-.608.098c-.192 0-.358-.03-.5-.086a.666.666 0 0 1-.32-.247.771.771 0 0 1-.107-.416c0-.27.102-.479.308-.628.206-.157.495-.264.865-.32.37-.058.8-.085 1.291-.085z" fill="#E3E3E3"/></g><defs><clipPath id="a"><path fill="#fff" d="M0 0h600v300H0z"/></clipPath></defs></svg>